# xmcd
#
# Track frame offsets:
#	150
#	16235
#	32743
#	54772
#	71184
#	89819
#	105445
#	115601
#	130700
#	147982
#	165610
#	181726
#	197910
#	215740
#	231887
#	251055
#
# Disc length: 3613 seconds
#
# Revision: 0
# Processed by: cddbd v1.4PL0 Copyright (c) Steve Scherf et al.
# Submitted via: dBpowerAMP V4.0
#
DISCID=e00e1b10
DTITLE=Shania Twain - Come on over
DYEAR=1998
DGENRE=Country
TTITLE0=You´re still the one
TTITLE1=When
TTITLE2=From this moment on
TTITLE3=Black eyes, blue tears
TTITLE4=I won´t leave you lonley
TTITLE5=I´m holdin´on to love
TTITLE6=Come on over
TTITLE7=You´ve gor a way
TTITLE8=Whatever you do! Don´t!
TTITLE9=Man! Feel like a woman!
TTITLE10=Love gets me every time
TTITLE11=Don´t be stupid
TTITLE12=That don´t impress me much
TTITLE13=Honey I´m home
TTITLE14=If you wanna touch her, ask!
TTITLE15=Rock this country!
EXTD=
EXTT0=
EXTT1=
EXTT2=
EXTT3=
EXTT4=
EXTT5=
EXTT6=
EXTT7=
EXTT8=
EXTT9=
EXTT10=
EXTT11=
EXTT12=
EXTT13=
EXTT14=
EXTT15=
PLAYORDER=
